<svg xmlns="http://www.w3.org/2000/svg" width="512" height="512" viewBox="0 0 512 512">
  <defs>
    <linearGradient id="wGradient" x1="0%" y1="100%" x2="100%" y2="0%">
      <stop offset="0%" style="stop-color:#8BC34A;stop-opacity:1" />
      <stop offset="50%" style="stop-color:#AEEA00;stop-opacity:1" />
      <stop offset="100%" style="stop-color:#C1FF72;stop-opacity:1" />
    </linearGradient>
  </defs>
  <rect width="512" height="512" fill="#000000"/>
  <path fill="url(#wGradient)" d="M 406 89 C 389 90 377 100 367 112 C 354 127 345 144 337 162 C 324 192 315 223 306 254 C 301 269 296 284 288 297 C 285 303 280 308 276 313 C 265 323 250 322 240 311 C 232 302 227 292 224 281 C 219 260 214 239 209 218 C 208 215 207 212 206 209 C 204 206 202 206 201 209 C 199 212 197 216 196 220 C 189 251 183 281 176 311 C 173 323 169 335 165 347 C 163 353 160 359 156 363 C 144 379 125 379 112 364 C 107 358 103 350 100 343 C 96 332 93 321 88 311 C 81 297 72 286 56 283 C 52 282 48 282 43 281 C 53 276 63 273 73 272 C 90 271 104 278 114 291 C 120 299 124 308 129 317 C 130 319 132 321 134 323 C 135 320 137 318 137 315 C 145 282 152 249 160 216 C 165 196 171 177 181 159 C 183 155 186 150 190 147 C 201 135 219 137 228 151 C 233 160 235 170 237 180 C 241 202 245 225 249 247 C 250 252 252 256 253 261 C 254 262 255 264 257 264 C 258 264 259 262 260 261 C 263 252 267 242 270 232 C 277 207 284 182 294 158 C 303 136 314 116 331 99 C 351 81 374 75 400 81 C 401 81 401 81 406 89 Z"/>
</svg>
