<svg xmlns="http://www.w3.org/2000/svg" xmlns:xlink="http://www.w3.org/1999/xlink" width="500" zoomAndPan="magnify" viewBox="0 0 375 374.999991" height="500" preserveAspectRatio="xMidYMid meet" version="1.0"><defs><clipPath id="cb1130c15c"><path d="M 20.308594 50 L 354.808594 50 L 354.808594 324 L 20.308594 324 Z M 20.308594 50 " clip-rule="nonzero"/></clipPath></defs><g clip-path="url(#cb1130c15c)"><path fill="#000000" d="M 354.808594 53.136719 C 338.425781 54.59375 327.066406 63.835938 317.238281 75.558594 C 305.296875 89.753906 297.066406 106.058594 289.640625 122.875 C 277.335938 150.902344 268.890625 180.164062 260.152344 209.429688 C 256 223.261719 251.269531 236.871094 243.839844 249.320312 C 240.710938 254.5625 236.996094 259.585938 232.703125 263.878906 C 222.726562 273.707031 208.746094 272.835938 199.425781 262.351562 C 192.4375 254.417969 187.777344 245.097656 185.226562 235.054688 C 180.277344 215.542969 176.199219 195.816406 171.757812 176.160156 C 171.101562 173.320312 170.519531 170.335938 169.425781 167.644531 C 168.335938 164.878906 166.222656 164.804688 164.984375 167.5 C 163.382812 170.773438 162.074219 174.269531 161.273438 177.835938 C 154.71875 206.371094 148.601562 234.980469 141.902344 263.445312 C 139.210938 274.945312 135.859375 286.300781 132.074219 297.4375 C 130.253906 302.824219 127.414062 308.140625 124.066406 312.652344 C 113.144531 327.429688 95.523438 327.722656 83.4375 313.816406 C 78.410156 308.066406 75.28125 301.296875 72.660156 294.234375 C 69.09375 284.699219 65.667969 275.019531 61.300781 265.847656 C 55.257812 253.179688 46.15625 243.425781 31.8125 240.074219 C 28.316406 239.273438 24.601562 238.984375 20.308594 238.328125 C 29.261719 233.886719 38 230.976562 47.394531 230.320312 C 63.484375 229.230469 76.445312 235.417969 85.765625 248.15625 C 91.007812 255.289062 94.792969 263.589844 99.382812 271.304688 C 100.691406 273.488281 102.585938 275.382812 104.1875 277.347656 C 105.132812 275.019531 106.445312 272.835938 107.027344 270.359375 C 114.164062 239.347656 120.933594 208.191406 128.359375 177.253906 C 132.730469 159.054688 138.261719 141.144531 147.730469 124.839844 C 150.058594 120.835938 152.824219 116.90625 156.03125 113.628906 C 166.953125 102.273438 183.40625 104.3125 191.707031 117.851562 C 196.660156 126.003906 198.699219 135.175781 200.445312 144.347656 C 204.230469 165.167969 207.800781 185.988281 211.585938 206.808594 C 212.386719 211.101562 213.84375 215.398438 215.300781 219.546875 C 215.734375 220.859375 217.265625 222.3125 218.503906 222.53125 C 219.375 222.679688 221.050781 221.003906 221.488281 219.839844 C 224.765625 210.957031 228.1875 202.148438 230.808594 193.050781 C 237.726562 169.828125 243.625 146.316406 253.160156 123.964844 C 261.753906 103.800781 272.09375 84.730469 288.476562 69.585938 C 307.042969 52.480469 328.667969 47.3125 353.132812 52.699219 C 353.640625 52.773438 354.226562 52.992188 354.808594 53.136719 Z M 354.808594 53.136719 " fill-opacity="1" fill-rule="nonzero"/></g></svg>